<svg width="24" height="24" viewBox="0 0 24 24" xmlns="http://www.w3.org/2000/svg"><path fill-rule="evenodd" clip-rule="evenodd" d="M10.5 6.181a4.014 4.014 0 0 0-1.576.792c-.78.654-1.169 1.519-1.169 2.595 0 1.74 1.012 2.826 3.034 3.259l1.455.316c.686.148 1.179.335 1.478.562.299.226.449.522.449.886 0 .432-.194.783-.58 1.052-.388.274-.885.411-1.494.411-.66 0-1.2-.137-1.618-.411-.428-.274-.668-.644-.72-1.108H7.5c.041 1.066.464 1.91 1.27 2.532.481.373 1.059.634 1.73.783v1.65h3v-1.655c.704-.158 1.3-.436 1.785-.834.81-.664 1.215-1.571 1.215-2.72 0-.887-.255-1.588-.766-2.105-.51-.517-1.326-.897-2.445-1.14l-1.347-.292c-.655-.142-1.125-.322-1.408-.538a1.017 1.017 0 0 1-.434-.854c0-.433.178-.778.534-1.036.35-.259.82-.388 1.409-.388.562 0 1.034.137 1.416.411.371.275.585.638.642 1.092h2.198c-.036-1.018-.449-1.846-1.238-2.484A4.169 4.169 0 0 0 13.5 6.18V4.5h-3v1.681z"/></svg>