<svg width="24" height="24" viewBox="0 0 24 24" xmlns="http://www.w3.org/2000/svg"><g clip-path="url(#clip0)" fill-rule="evenodd" clip-rule="evenodd"><path d="M17 15a1 1 0 1 1 2 0v4a1 1 0 0 1-1 1H6a1 1 0 0 1-1-1v-4a1 1 0 0 1 2 0v3h10v-3z"/><path d="M13 12.596l2.545-2.542a1 1 0 0 1 1.414 0 .998.998 0 0 1 0 1.413l-4.246 4.24a.995.995 0 0 1-.709.293.996.996 0 0 1-.706-.292l-4.244-4.244a1 1 0 0 1 1.413-1.413L11 12.583V5a1 1 0 1 1 2 0v7.596z"/></g><defs><clipPath id="clip0"><path d="M0 0h24v24H0z"/></clipPath></defs></svg>