<svg width="24" height="24" viewBox="0 0 24 24" xmlns="http://www.w3.org/2000/svg"><g clip-path="url(#clip0)"><path fill-rule="evenodd" clip-rule="evenodd" d="M15.092 5.58l-.407.882A8.003 8.003 0 0 0 4.252 12a8.016 8.016 0 0 0 5.286 5.614l-.446.967a1 1 0 1 0 1.816.838l6-13a1 1 0 1 0-1.816-.838zM12 8c.64 0 1.246.15 1.783.418l-.84 1.818a2 2 0 0 0-1.674 3.626l-.838 1.818A4.001 4.001 0 0 1 12 8zm3.75 5.396l2.193-4.752A7.983 7.983 0 0 1 19.748 12a8.012 8.012 0 0 1-6.039 5.817l1.788-3.873c.097-.175.182-.358.253-.548z"/></g><defs><clipPath id="clip0"><path d="M0 0h24v24H0z"/></clipPath></defs></svg>