<svg xmlns="http://www.w3.org/2000/svg" width="48" height="48" viewBox="0 0 48 48"><path d="M43.901 26C42.898 36.107 34.371 44 24 44a19.95 19.95 0 0 1-7.373-1.403L4 44l1.403-12.627A19.947 19.947 0 0 1 4 24C4 12.954 12.954 4 24 4c7.746 0 14.463 4.403 17.786 10.844l-2.664 1.381C36.3 10.747 30.587 7 24 7 14.611 7 7 14.611 7 24c0 2.178.408 4.292 1.191 6.266l.39.985-1.02 9.188 9.188-1.02.985.39A16.943 16.943 0 0 0 24 41c8.712 0 15.894-6.554 16.884-15H37l5.5-6 5.5 6h-4.099z" opacity=".5"/><path d="M31.061 28.939l-2.122 2.122-6.439-6.44V14h3v9.379z"/></svg>