<svg width="24" height="24" viewBox="0 0 24 24" xmlns="http://www.w3.org/2000/svg"><g clip-path="url(#clip0)" fill-rule="evenodd" clip-rule="evenodd"><path d="M15.736 19.577a9.057 9.057 0 0 1-4.39.272 6.02 6.02 0 0 1-3.558-.27l-.463-.183-3.061.34.34-3.061-.184-.463a6.02 6.02 0 0 1-.269-3.558 9.052 9.052 0 0 1 .272-4.39A7.976 7.976 0 0 0 2 14c0 1.042.199 2.037.561 2.95L2 22l5.05-.561A7.98 7.98 0 0 0 10 22a7.98 7.98 0 0 0 5.736-2.423z"/><path d="M13 20a8.975 8.975 0 0 0 3.318-.631L22 20l-.631-5.682A9 9 0 1 0 13 20zm6.326-5.957l.41 3.693-3.693-.41-.463.184a7 7 0 1 1 3.93-3.93l-.184.463z"/></g><defs><clipPath id="clip0"><path d="M0 0h24v24H0z"/></clipPath></defs></svg>