<svg width="24" height="24" viewBox="0 0 24 24" xmlns="http://www.w3.org/2000/svg"><g clip-path="url(#clip0)"><path fill-rule="evenodd" clip-rule="evenodd" d="M9.748 13a4 4 0 1 1 0-8 4 4 0 0 1 0 8zm8-1a3 3 0 1 1 0-6 3 3 0 0 1 0 6zm-6-3a2 2 0 1 1-4 0 2 2 0 0 1 4 0zm6 1a1 1 0 1 0 0-2 1 1 0 0 0 0 2zm-3.273 4.356c.57.354 1.098.77 1.574 1.239A3.001 3.001 0 0 1 20.672 17h2.033a5.002 5.002 0 0 0-8.23-2.644zM4.09 20H2a8.003 8.003 0 0 1 15.496 0h-2.09A6.002 6.002 0 0 0 4.09 20z"/></g><defs><clipPath id="clip0"><path d="M0 0h24v24H0z"/></clipPath></defs></svg>