<svg xmlns="http://www.w3.org/2000/svg" width="48" height="48" viewBox="0 0 48 48"><path d="M8.847 16.528a17.99 17.99 0 0 0-.823 6.407A12.959 12.959 0 0 0 7 28c0 1.666.311 3.283.91 4.792l.399 1.003-.737 6.633 6.633-.737 1.003.399c1.51.599 3.126.91 4.792.91 1.797 0 3.509-.365 5.065-1.024a17.99 17.99 0 0 0 6.407-.823A15.952 15.952 0 0 1 20 44c-2.083 0-4.073-.398-5.899-1.122L4 44l1.122-10.101A15.958 15.958 0 0 1 4 28c0-4.5 1.857-8.565 4.847-11.472z" opacity=".5"/><path d="M40.435 36.435l-.88-7.913.394-.993A14.948 14.948 0 0 0 41 22c0-8.284-6.716-15-15-15-8.284 0-15 6.716-15 15 0 8.284 6.716 15 15 15 1.922 0 3.787-.36 5.53-1.05l.992-.395 7.913.88zm-7.8 2.302A17.952 17.952 0 0 1 26 40c-9.941 0-18-8.059-18-18S16.059 4 26 4s18 8.059 18 18a17.95 17.95 0 0 1-1.263 6.636L44 40l-11.364-1.263z"/></svg>