<svg width="24" height="24" viewBox="0 0 24 24" xmlns="http://www.w3.org/2000/svg"><g clip-path="url(#clip0)"><path fill-rule="evenodd" clip-rule="evenodd" d="M18.752 12c0 .306-.027.594-.063.882l1.899 1.485a.454.454 0 0 1 .108.576l-1.8 3.114a.439.439 0 0 1-.549.198l-2.241-.9a6.915 6.915 0 0 1-1.521.882l-.342 2.385a.439.439 0 0 1-.441.378h-3.6a.439.439 0 0 1-.441-.378l-.342-2.385a6.575 6.575 0 0 1-1.521-.882l-2.241.9a.452.452 0 0 1-.549-.198l-1.8-3.114a.454.454 0 0 1 .108-.576l1.899-1.485A7.14 7.14 0 0 1 5.252 12c0-.297.027-.594.063-.882L3.416 9.633a.444.444 0 0 1-.108-.576l1.8-3.114a.439.439 0 0 1 .549-.198l2.241.9a6.914 6.914 0 0 1 1.521-.882l.342-2.385A.439.439 0 0 1 10.202 3h3.6c.225 0 .414.162.441.378l.342 2.385a6.575 6.575 0 0 1 1.521.882l2.241-.9a.452.452 0 0 1 .549.198l1.8 3.114a.454.454 0 0 1-.108.576l-1.899 1.485c.036.288.063.576.063.882zm-9.9 0a3.153 3.153 0 0 0 3.15 3.15 3.153 3.153 0 0 0 3.15-3.15 3.153 3.153 0 0 0-3.15-3.15A3.153 3.153 0 0 0 8.852 12z"/></g><defs><clipPath id="clip0"><path d="M0 0h24v24H0z"/></clipPath></defs></svg>