<svg width="24" height="24" viewBox="0 0 24 24" xmlns="http://www.w3.org/2000/svg"><g clip-path="url(#clip0)" fill-rule="evenodd" clip-rule="evenodd"><path d="M17 15a1 1 0 1 1 2 0v4a1 1 0 0 1-1 1H6a1 1 0 0 1-1-1v-4a1 1 0 0 1 2 0v3h10v-3z"/><path d="M13 7.405l2.545 2.541a1 1 0 0 0 1.414 0 .998.998 0 0 0 0-1.412l-4.246-4.241A.995.995 0 0 0 12.004 4a.996.996 0 0 0-.706.293L7.054 8.536A1 1 0 0 0 8.467 9.95L11 7.417V15a1 1 0 1 0 2 0V7.405z"/></g><defs><clipPath id="clip0"><path d="M0 0h24v24H0z"/></clipPath></defs></svg>